<svg width="345" height="345" viewBox="0 0 345 345" fill="none" xmlns="http://www.w3.org/2000/svg">
<g clip-path="url(#clip0_1_22)">
<path d="M345 0H0V345H345V0Z" fill="#010409"/>
<path d="M58.0586 262.693V125.481H82.9971L96.7971 169.444C98.1771 173.584 99.36 177.626 100.346 181.371C101.331 185.117 102.021 188.074 102.416 189.947L104.584 181.371C105.471 177.626 106.556 173.584 107.837 169.444L120.947 125.481H145.984V262.693H126.27V216.857C126.27 210.943 126.27 204.437 126.763 197.143C127.256 189.849 127.551 182.653 128.241 175.359C128.931 168.064 129.424 160.967 130.114 154.264C130.804 147.561 131.297 141.746 131.79 136.719L111.977 203.057H92.2628L71.5629 136.423C72.1543 141.253 72.8443 146.97 73.4357 153.377C74.0271 159.784 74.6186 166.684 75.1114 173.979C75.6043 181.273 76.0971 188.567 76.4914 195.861C76.8857 203.156 76.4914 210.056 76.4914 216.463V262.693H58.0586Z" fill="#66FF66"/>
<path d="M169.641 284.97V267.326H259.834V284.97H169.641Z" fill="#66FF66"/>
</g>
<defs>
<clipPath id="clip0_1_22">
<rect width="345" height="345" fill="white"/>
</clipPath>
</defs>
</svg>
